<svg xmlns="http://www.w3.org/2000/svg" width="240" height="120" viewBox="0 0 240 120" fill="none" role="img"><title>Verhoeven Joaillier</title><g transform="translate(0.000 27.301) scale(0.207612) translate(-0.0 -0.0)">
<path d="M20.53 64.26C16.03 53.31 13.1 49.2 4.69 48.22L1.17 47.83C-0.2 46.66 -2.38419e-07 43.92 1.56 42.94C7.23 43.33 13.49 43.53 21.9 43.53C30.31 43.53 37.35 43.33 45.57 42.94C46.94 43.72 47.33 46.66 45.96 47.83L43.03 48.22C35.6 49.2 34.03 50.37 33.84 51.94C34.23 53.9 37.56 64.46 43.62 79.33C52.62 102.02 61.62 124.52 71.4 146.82C77.46 133.91 85.68 113.76 90.18 103.39C95.85 90.09 105.05 67.98 108.37 59.57C109.93 55.46 110.13 53.31 110.13 51.94C110.13 50.57 108.17 49.01 101.33 48.22L97.81 47.83C96.44 46.66 96.83 43.72 98.2 42.94C103.68 43.33 111.11 43.53 118.54 43.53C124.99 43.53 131.06 43.33 137.51 42.94C138.88 43.72 138.88 46.85 137.9 47.83L132.03 48.22C127.34 48.61 124.4 50.96 121.86 55.07C116.38 64.26 108.75 80.11 99.95 100.06L89.39 124.12C81.56 142.12 72.37 164.81 69.05 175.18C68.46 175.57 67.68 175.77 66.9 175.77C65.92 175.77 64.94 175.57 63.97 175.18C61.82 166.96 58.3 157.38 54.97 149.16L20.54 64.26H20.53Z" fill="#f7f2f2" stroke="white" stroke-width="0.5" stroke-miterlimit="10"/>
<path d="M153.54 72.87C153.54 52.53 153.15 49.59 141.61 48.22L138.48 47.83C137.31 47.05 137.7 43.53 138.87 42.94C147.28 43.33 153.93 43.53 161.95 43.53H198.72C211.24 43.53 222.78 43.53 225.13 42.94C226.3 46.26 227.48 60.35 228.26 68.96C227.48 70.13 224.35 70.52 223.37 69.35C220.44 60.16 218.68 53.31 208.5 50.77C204.39 49.79 198.13 49.6 189.52 49.6H175.44C169.57 49.6 169.57 49.99 169.57 57.42V96.54C169.57 102.02 170.16 102.02 176.02 102.02H187.37C195.59 102.02 201.65 101.63 204 100.85C206.35 100.07 207.72 98.89 208.7 94L210.26 85.98C211.24 84.81 214.56 84.81 215.34 86.18C215.34 90.87 214.56 98.5 214.56 105.94C214.56 112.98 215.34 120.42 215.34 124.72C214.56 126.09 211.23 126.09 210.26 124.92L208.5 117.29C207.72 113.77 206.35 110.84 202.43 109.86C199.69 109.08 195 108.88 187.37 108.88H176.02C170.15 108.88 169.57 109.08 169.57 114.16V141.74C169.57 152.11 170.16 158.76 173.29 162.08C175.64 164.43 179.75 166.58 196.96 166.58C212.02 166.58 217.7 165.8 222 163.65C225.52 161.69 230.8 154.85 235.89 144.67C237.26 143.69 240 144.28 240.78 146.04C239.41 152.89 234.52 167.95 231.98 173.23C214.38 172.84 196.97 172.64 179.56 172.64H161.95C153.54 172.64 146.89 172.84 135.35 173.23C134.18 172.64 133.79 169.51 134.96 168.34L141.41 167.75C152.56 166.77 153.54 163.84 153.54 143.3V72.88V72.87Z" fill="#f7f2f2" stroke="white" stroke-width="0.5" stroke-miterlimit="10"/>
<path d="M263.08 73.07C263.08 54.49 262.49 51.16 254.47 50.18L248.21 49.4C246.84 48.42 246.84 45.29 248.41 44.51C259.36 43.53 272.86 42.95 292.03 42.95C304.16 42.95 315.7 43.93 324.7 48.82C334.09 53.71 340.94 62.51 340.94 76.21C340.94 94.79 326.27 104.97 316.49 108.88C315.51 110.05 316.49 112.01 317.47 113.58C333.12 138.81 343.49 154.46 356.79 165.61C360.12 168.54 365.01 170.7 370.29 171.09C371.27 171.48 371.46 173.05 370.49 173.83C368.73 174.42 365.6 174.81 361.88 174.81C345.25 174.81 335.28 169.92 321.39 150.16C316.3 142.92 308.28 129.42 302.22 120.62C299.29 116.32 296.16 114.36 288.33 114.36C279.53 114.36 279.14 114.56 279.14 118.66V143.31C279.14 163.85 279.53 166.2 290.88 167.76L294.99 168.35C296.16 169.33 295.77 172.65 294.6 173.24C285.8 172.85 279.15 172.65 271.32 172.65C263.1 172.65 256.06 172.85 246.87 173.24C245.7 172.65 245.31 169.72 246.48 168.35L251.37 167.76C262.72 166.39 263.11 163.85 263.11 143.31V73.09L263.08 73.07ZM279.12 101.04C279.12 104.56 279.12 106.71 279.71 107.49C280.3 108.08 283.23 108.47 293.21 108.47C300.25 108.47 307.68 107.69 313.36 103.38C318.64 99.27 323.14 92.43 323.14 79.12C323.14 63.67 313.55 49 291.84 49C279.71 49 279.13 49.78 279.13 55.26V101.03L279.12 101.04Z" fill="#f7f2f2" stroke="white" stroke-width="0.5" stroke-miterlimit="10"/>
<path d="M410.37 109.45C400.98 109.45 400.59 109.84 400.59 115.71V143.29C400.59 163.83 401.57 166.57 412.52 167.74L418.19 168.33C419.36 169.11 418.97 172.63 417.8 173.22C407.24 172.83 400.59 172.63 392.96 172.63C384.55 172.63 377.9 173.02 370.27 173.22C369.1 172.63 368.71 169.5 369.88 168.33L373.21 167.74C384.16 165.78 384.56 163.83 384.56 143.29V72.87C384.56 52.33 383.19 49 373.02 48.22L367.93 47.83C366.76 47.05 367.15 43.53 368.32 42.94C377.91 43.14 384.56 43.53 392.97 43.53C400.6 43.53 407.25 43.33 415.66 42.94C416.83 43.53 417.22 47.05 416.05 47.83L412.33 48.22C400.98 49.39 400.59 52.33 400.59 72.87V95.37C400.59 101.43 400.98 101.63 410.37 101.63H466.32C475.71 101.63 476.1 101.43 476.1 95.37V72.87C476.1 52.33 475.71 49.4 464.17 48.22L460.45 47.83C459.28 47.05 459.67 43.53 460.84 42.94C469.84 43.33 476.49 43.53 484.51 43.53C492.53 43.53 498.79 43.33 507.59 42.94C508.76 43.53 509.16 47.05 507.98 47.83L503.87 48.22C492.52 49.39 492.13 52.33 492.13 72.87V143.29C492.13 163.83 492.52 166.37 503.87 167.74L508.56 168.33C509.73 169.11 509.34 172.63 508.17 173.22C498.78 172.83 492.13 172.63 484.5 172.63C476.48 172.63 469.44 172.83 460.83 173.22C459.66 172.63 459.27 169.5 460.44 168.33L464.16 167.74C476.09 165.78 476.09 163.83 476.09 143.29V115.71C476.09 109.84 475.7 109.45 466.31 109.45H410.36H410.37Z" fill="#f7f2f2" stroke="white" stroke-width="0.5" stroke-miterlimit="10"/>
<path d="M521.47 109.45C521.47 70.33 550.81 40.4 591.11 40.4C636.3 40.4 658.99 73.07 658.99 107.49C658.99 147.01 628.87 175.76 591.11 175.76C547.68 175.76 521.47 144.66 521.47 109.45ZM639.43 113.56C639.43 81.28 625.15 46.46 587.79 46.46C567.45 46.46 541.04 60.35 541.04 103.19C541.04 132.14 555.12 169.7 593.66 169.7C617.13 169.7 639.43 152.09 639.43 113.56Z" fill="#f7f2f2" stroke="white" stroke-width="0.5" stroke-miterlimit="10"/>
<path d="M688.32 72.87C688.32 52.53 687.93 49.59 676.39 48.22L673.26 47.83C672.09 47.05 672.48 43.53 673.65 42.94C682.06 43.33 688.71 43.53 696.73 43.53H733.5C746.02 43.53 757.56 43.53 759.91 42.94C761.08 46.26 762.26 60.35 763.04 68.96C762.26 70.13 759.13 70.52 758.15 69.35C755.22 60.16 753.46 53.31 743.28 50.77C739.17 49.79 732.91 49.6 724.3 49.6H710.22C704.35 49.6 704.35 49.99 704.35 57.42V96.54C704.35 102.02 704.94 102.02 710.8 102.02H722.15C730.37 102.02 736.43 101.63 738.78 100.85C741.13 100.07 742.5 98.89 743.48 94L745.04 85.98C746.02 84.81 749.34 84.81 750.12 86.18C750.12 90.87 749.34 98.5 749.34 105.94C749.34 112.98 750.12 120.42 750.12 124.72C749.34 126.09 746.01 126.09 745.04 124.92L743.28 117.29C742.5 113.77 741.13 110.84 737.21 109.86C734.47 109.08 729.78 108.88 722.15 108.88H710.8C704.93 108.88 704.35 109.08 704.35 114.16V141.74C704.35 152.11 704.94 158.76 708.07 162.08C710.42 164.43 714.53 166.58 731.74 166.58C746.8 166.58 752.48 165.8 756.78 163.65C760.3 161.69 765.58 154.85 770.67 144.67C772.04 143.69 774.78 144.28 775.56 146.04C774.19 152.89 769.3 167.95 766.76 173.23C749.16 172.84 731.75 172.64 714.34 172.64H696.73C688.32 172.64 681.67 172.84 670.13 173.23C668.96 172.64 668.57 169.51 669.74 168.34L676.19 167.75C687.34 166.77 688.32 163.84 688.32 143.3V72.88V72.87Z" fill="#f7f2f2" stroke="white" stroke-width="0.5" stroke-miterlimit="10"/>
<path d="M790.04 64.26C785.54 53.31 782.61 49.2 774.2 48.22L770.68 47.83C769.31 46.66 769.51 43.92 771.07 42.94C776.74 43.33 783 43.53 791.41 43.53C799.82 43.53 806.86 43.33 815.08 42.94C816.45 43.72 816.84 46.66 815.47 47.83L812.54 48.22C805.11 49.2 803.54 50.37 803.35 51.94C803.74 53.9 807.07 64.46 813.13 79.33C822.13 102.02 831.13 124.52 840.91 146.82C846.97 133.91 855.19 113.76 859.69 103.39C865.36 90.09 874.56 67.98 877.88 59.57C879.44 55.46 879.64 53.31 879.64 51.94C879.64 50.57 877.68 49.01 870.84 48.22L867.32 47.83C865.95 46.66 866.34 43.72 867.71 42.94C873.19 43.33 880.62 43.53 888.05 43.53C894.5 43.53 900.57 43.33 907.02 42.94C908.39 43.72 908.39 46.85 907.41 47.83L901.54 48.22C896.85 48.61 893.91 50.96 891.37 55.07C885.89 64.26 878.26 80.11 869.46 100.06L858.9 124.12C851.07 142.12 841.88 164.81 838.56 175.18C837.97 175.57 837.19 175.77 836.41 175.77C835.43 175.77 834.45 175.57 833.48 175.18C831.33 166.96 827.81 157.38 824.48 149.16L790.05 64.26H790.04Z" fill="#f7f2f2" stroke="white" stroke-width="0.5" stroke-miterlimit="10"/>
<path d="M923.05 72.87C923.05 52.53 922.66 49.59 911.12 48.22L907.99 47.83C906.82 47.05 907.21 43.53 908.38 42.94C916.79 43.33 923.44 43.53 931.46 43.53H968.23C980.75 43.53 992.29 43.53 994.64 42.94C995.81 46.26 996.99 60.35 997.77 68.96C996.99 70.13 993.86 70.52 992.88 69.35C989.95 60.16 988.19 53.31 978.01 50.77C973.9 49.79 967.64 49.6 959.03 49.6H944.95C939.08 49.6 939.08 49.99 939.08 57.42V96.54C939.08 102.02 939.67 102.02 945.53 102.02H956.88C965.1 102.02 971.16 101.63 973.51 100.85C975.86 100.07 977.23 98.89 978.21 94L979.77 85.98C980.75 84.81 984.07 84.81 984.85 86.18C984.85 90.87 984.07 98.5 984.07 105.94C984.07 112.98 984.85 120.42 984.85 124.72C984.07 126.09 980.74 126.09 979.77 124.92L978.01 117.29C977.23 113.77 975.86 110.84 971.94 109.86C969.2 109.08 964.51 108.88 956.88 108.88H945.53C939.66 108.88 939.08 109.08 939.08 114.16V141.74C939.08 152.11 939.67 158.76 942.8 162.08C945.15 164.43 949.26 166.58 966.47 166.58C981.53 166.58 987.21 165.8 991.51 163.65C995.03 161.69 1000.31 154.85 1005.4 144.67C1006.77 143.69 1009.51 144.28 1010.29 146.04C1008.92 152.89 1004.03 167.95 1001.49 173.23C983.89 172.84 966.48 172.64 949.07 172.64H931.46C923.05 172.64 916.4 172.84 904.86 173.23C903.69 172.64 903.3 169.51 904.47 168.34L910.92 167.75C922.07 166.77 923.05 163.84 923.05 143.3V72.88V72.87Z" fill="#f7f2f2" stroke="white" stroke-width="0.5" stroke-miterlimit="10"/>
<path d="M1137.83 139.38C1137.83 145.25 1137.83 168.53 1138.42 173.61C1138.03 174.78 1136.86 175.76 1134.7 175.76C1132.35 172.44 1126.68 165.59 1109.66 146.22L1064.28 94.58C1059 88.52 1045.7 72.48 1041.59 68.17H1041.2C1040.42 70.52 1040.22 75.02 1040.22 80.88V123.52C1040.22 132.71 1040.42 158.14 1043.74 164.01C1044.91 166.16 1048.83 167.33 1053.72 167.73L1059.79 168.32C1060.96 169.88 1060.77 172.23 1059.4 173.21C1050.6 172.82 1043.75 172.62 1036.51 172.62C1028.29 172.62 1023.01 172.82 1016.17 173.21C1014.8 172.23 1014.61 169.49 1015.78 168.32L1021.06 167.73C1025.56 167.14 1028.69 165.97 1029.67 163.82C1032.41 156.78 1032.21 132.91 1032.21 123.52V66.99C1032.21 61.51 1032.01 57.4 1027.91 52.91C1025.17 50.17 1020.48 48.8 1015.78 48.22L1012.46 47.83C1011.29 46.66 1011.29 43.72 1012.85 42.94C1021.07 43.53 1031.43 43.53 1034.95 43.53C1038.08 43.53 1041.4 43.33 1043.95 42.94C1047.86 52.92 1070.95 78.74 1077.4 85.97L1096.38 107.29C1109.88 122.35 1119.46 133.31 1128.66 142.7H1129.05C1129.83 141.72 1129.83 138.59 1129.83 134.48V92.62C1129.83 83.43 1129.63 58 1125.92 52.13C1124.75 50.37 1121.62 49.2 1113.79 48.22L1110.47 47.83C1109.1 46.66 1109.3 43.53 1110.86 42.94C1119.86 43.33 1126.51 43.53 1133.94 43.53C1142.35 43.53 1147.44 43.33 1154.09 42.94C1155.65 43.92 1155.65 46.66 1154.48 47.83L1151.74 48.22C1145.48 49.2 1141.57 50.76 1140.79 52.33C1137.46 59.37 1137.86 83.63 1137.86 92.63V139.38H1137.83Z" fill="#f7f2f2" stroke="white" stroke-width="0.5" stroke-miterlimit="10"/>
<path d="M502.45 232.09C502.45 224.72 502.13 222.33 497.24 221.9L492.03 221.46C491.16 221.03 491.06 219.51 491.92 219.07C501.03 217.44 507 214.63 509.83 212.78C510.26 212.78 510.7 213 510.91 213.32C510.7 215.27 510.47 220.7 510.47 226.88V268.96C510.47 277.31 510.69 279.15 515.13 279.48L519.69 279.81C520.34 280.46 520.24 282.2 519.48 282.52C515.26 282.3 510.37 282.19 506.57 282.19C502.77 282.19 497.79 282.3 493.55 282.52C492.79 282.19 492.68 280.46 493.34 279.81L497.79 279.48C502.35 279.15 502.45 277.31 502.45 268.96V232.08V232.09Z" fill="#f7f2f2"/>
<path d="M532.81 231C532.81 239.46 537.03 249.22 545.28 249.22C548 249.22 548.76 249.11 550.05 248.79C550.49 249.01 550.6 249.66 550.38 250.09C548.21 251.94 544.84 253.23 540.61 253.23C531.83 253.23 524.13 246.18 524.13 234.9C524.13 221.89 533.99 212.78 546.36 212.78C559.92 212.78 567.94 224.49 567.94 240.44C567.94 252.26 563.06 266.36 552 276.23C543.97 283.39 533.45 287.4 526.18 288.7C525.31 288.37 524.99 286.75 525.53 286.2C532.04 284.25 537.47 281.65 541.58 278.61C551.56 271.24 558.29 260.06 558.29 239.56C558.29 229.69 555.47 216.02 544.95 216.02C538.01 216.02 532.8 221.34 532.8 230.99L532.81 231Z" fill="#f7f2f2"/>
<path d="M615.77 248.25C615.77 265.28 609.16 283.72 593.32 283.72C577.48 283.72 570.87 265.28 570.87 248.25C570.87 231.22 577.49 212.78 593.32 212.78C609.15 212.78 615.77 231.87 615.77 248.25ZM580.53 248.25C580.53 258.44 581.4 280.47 593.32 280.47C605.24 280.47 606.12 258.45 606.12 248.25C606.12 238.05 605.25 216.03 593.32 216.03C581.39 216.03 580.53 238.05 580.53 248.25Z" fill="#f7f2f2"/>
<path d="M661.09 228.62C661.09 237.51 653.72 241.53 648.3 245.11C655.78 249.34 662.61 254.98 662.61 265.28C662.61 276.78 653.61 283.72 640.92 283.72C631.27 283.72 620.85 278.84 620.85 265.61C620.85 257.48 628.34 251.95 635.49 247.39C629.2 243.92 623.23 238.71 623.13 230.36C623.02 219.3 632.03 212.79 643.09 212.79C652.75 212.79 661.09 218.21 661.09 228.63V228.62ZM654.59 267.34C654.59 258.77 646.45 252.81 638.54 249.23C631.38 254.11 628.67 259.97 628.67 264.63C628.67 273.74 633.99 280.47 642.02 280.47C650.05 280.47 654.6 275.26 654.6 267.34H654.59ZM630.94 228.08C630.94 235.56 638.32 240.12 645.15 243.48C650.13 239.9 653.82 235.02 653.82 228.84C653.82 222.22 649.26 216.04 642.32 216.04C634.83 216.04 630.93 221.79 630.93 228.08H630.94Z" fill="#f7f2f2"/>
</g></svg>